# xmcd
#
# Track frame offsets:
#	150
#	16522
#	37346
#	52874
#	67693
#	86266
#	99214
#	113503
#	133111
#	147049
#	163421
#	184245
#	199773
#	214592
#	233165
#	246113
#	260402
#	280010
#
# Disc length: 3919
#
# Revision: 1
# Processed by: cddbd v1.5.2PL0 Copyright (c) Steve Scherf et al.
# Submitted via: kJams Pro (development) 1.0patch45.7
#
DISCID=eb0f4d12
DTITLE=Various Artist - NSC 3011
DYEAR=1993
DGENRE=Country
TTITLE0=Toby Keith - You Shouldn't Kiss Me Like This
TTITLE1=Jo Dee Messina - Burn
TTITLE2=Georgia Middleman - No Place Like Home
TTITLE3=Alabama - When It All Goes South
TTITLE4=Shedaisy - Lucky For You (Tonight I'm Just Me)
TTITLE5=Dwight Yoakum - What Do You Know About Love
TTITLE6=Andy Griggs - You Made Me That Way
TTITLE7=Carolyn Dawn Johnson - Georgia
TTITLE8=Tim McGraw - Things Change
TTITLE9=Toby Keith - Vocals - You Shouldn't Kiss Me Like This
TTITLE10=Jo Dee Messina - Vocals - Burn
TTITLE11=Georgia Middleman - Vocals - No Place Like Home
TTITLE12=Alabama - Vocals - When It All Goes South
TTITLE13=Shedaisy - Vocals - Lucky For You (Tonight I'm Just Me)
TTITLE14=Dwight Yoakum - Vocals - What Do You Know About Love
TTITLE15=Andy Griggs - Vocals - You Made Me That Way
TTITLE16=Carolyn Dawn Johnson - Vocals - Georgia
TTITLE17=Tim McGraw - Vocals - Things Change
EXTD=
EXTT0=
EXTT1=
EXTT2=
EXTT3=
EXTT4=
EXTT5=
EXTT6=
EXTT7=
EXTT8=
EXTT9=
EXTT10=
EXTT11=
EXTT12=
EXTT13=
EXTT14=
EXTT15=
EXTT16=
EXTT17=
PLAYORDER=
